<svg id="Button_fz" xmlns="http://www.w3.org/2000/svg" width="14" height="14" viewBox="0 0 14 14">
  <path id="路径_3270" data-name="路径 3270" d="M172.492,11.869a.551.551,0,1,1,0-1.1.275.275,0,0,0,.275-.275V1.377a.275.275,0,0,0-.275-.275h-9.115a.275.275,0,0,0-.275.275.551.551,0,0,1-1.1,0A1.377,1.377,0,0,1,163.377,0h9.115a1.377,1.377,0,0,1,1.377,1.377v9.115A1.377,1.377,0,0,1,172.492,11.869Z" transform="translate(-159.869)" fill="#2e5bff"/>
  <path id="路径_3271" data-name="路径 3271" d="M10.492,173.869H1.377A1.377,1.377,0,0,1,0,172.492v-9.115A1.377,1.377,0,0,1,1.377,162h9.115a1.377,1.377,0,0,1,1.377,1.377v9.115A1.377,1.377,0,0,1,10.492,173.869ZM1.377,163.1a.275.275,0,0,0-.275.275v9.115a.275.275,0,0,0,.275.275h9.115a.275.275,0,0,0,.275-.275v-9.115a.275.275,0,0,0-.275-.275Z" transform="translate(0 -159.869)" fill="#2e5bff"/>
  <path id="路径_3272" data-name="路径 3272" d="M391.659,386.052a.659.659,0,0,1-.659-.659v-5.734a.659.659,0,0,1,1.318,0v5.734A.659.659,0,0,1,391.659,386.052Z" transform="translate(-385.747 -374.581)" fill="#2e5bff"/>
  <path id="路径_3273" data-name="路径 3273" d="M223.393,554.318h-5.734a.659.659,0,1,1,0-1.318h5.734a.659.659,0,1,1,0,1.318Z" transform="translate(-214.47 -545.571)" fill="#2e5bff"/>
</svg>
