<svg xmlns="http://www.w3.org/2000/svg" width="14.002" height="14" viewBox="0 0 14.002 14">
  <g id="Button_dc" transform="translate(-95.147 -85.333)">
    <path id="路径_3556" data-name="路径 3556" d="M108.027,98.213H96.267V86.453h5.222v-1.12h-5.5a.842.842,0,0,0-.84.84v12.32a.842.842,0,0,0,.84.84h12.32a.842.842,0,0,0,.84-.84V92.8h-1.12Z" transform="translate(0)" fill="#69707f"/>
    <path id="路径_3557" data-name="路径 3557" d="M389.764,96.463a.562.562,0,0,1-.56-.56v-3.29a.56.56,0,1,1,1.12,0V95.9A.557.557,0,0,1,389.764,96.463Zm-6.72-10.01h-1.47a.56.56,0,0,1,0-1.12h1.47a.56.56,0,0,1,0,1.12Zm3.094-1.12h3.612a.574.574,0,1,1,0,1.148h-3.612a.574.574,0,0,1,0-1.148Z" transform="translate(-281.177)" fill="#69707f"/>
    <path id="路径_3558" data-name="路径 3558" d="M879.655,85.907v3.612a.574.574,0,0,1-1.148,0V85.907a.574.574,0,0,1,1.148,0Z" transform="translate(-770.508)" fill="#69707f"/>
    <path id="路径_3559" data-name="路径 3559" d="M441.669,85.816l.007.007a.553.553,0,0,1,0,.784l-7.336,7.336a.553.553,0,0,1-.784,0l-.007-.007a.553.553,0,0,1,0-.784l7.336-7.336A.553.553,0,0,1,441.669,85.816Z" transform="translate(-332.69 -0.315)" fill="#69707f"/>
  </g>
</svg>
