<svg xmlns="http://www.w3.org/2000/svg" width="14" height="14" viewBox="0 0 14 14">
  <g id="Button_xz" transform="translate(0 0)">
    <path id="路径_3266" data-name="路径 3266" d="M75.895,78.5H68.87a1.165,1.165,0,0,1-1.16-1.167V69.239a.6.6,0,1,1,1.193,0V77.3h6.992a.6.6,0,0,1,0,1.2Zm2.949-6.1a.6.6,0,0,1-.6-.6V65.7l-6.277.01a.6.6,0,0,1,0-1.2l6.31-.01a1.165,1.165,0,0,1,1.16,1.167V71.8A.6.6,0,0,1,78.844,72.4Zm-.564-6.7h0Z" transform="translate(-67.71 -64.5)" fill="#2e5bff"/>
    <path id="路径_3267" data-name="路径 3267" d="M96.123,362.583H92.5a.65.65,0,0,1,0-1.3h3.619a.627.627,0,0,1,.6.649C96.726,362.293,96.123,362.583,96.123,362.583Zm9.094,6.6h-4.222a.65.65,0,0,1,0-1.3h4.222a.65.65,0,0,1,0,1.3Z" transform="translate(-91.82 -357.151)" fill="#2e5bff"/>
    <path id="路径_3268" data-name="路径 3268" d="M333.433,86.148a.626.626,0,0,1-.648-.6v-4.2a.651.651,0,0,1,1.3,0v4.2A.626.626,0,0,1,333.433,86.148Zm-7.146-8.5a.626.626,0,0,1-.649-.6v-4.2a.651.651,0,0,1,1.3,0v4.2A.625.625,0,0,1,326.287,77.65Z" transform="translate(-322.043 -72.156)" fill="#2e5bff"/>
    <path id="路径_3269" data-name="路径 3269" d="M68.608,69.823a.649.649,0,0,1-.457-1.108L71.692,64.7a.649.649,0,0,1,.915.92l-3.542,4.013A.647.647,0,0,1,68.608,69.823Z" transform="translate(-67.864 -64.495)" fill="#2e5bff"/>
  </g>
</svg>
