<svg xmlns="http://www.w3.org/2000/svg" width="14" height="14" viewBox="0 0 14 14">
  <path id="Button_del" d="M72.488,74.99a.5.5,0,0,1-.5-.5v-5.5a.5.5,0,1,1,1,0v5.5A.5.5,0,0,1,72.488,74.99Zm-3,0a.5.5,0,0,1-.5-.5v-5.5a.5.5,0,1,1,1,0v5.5A.5.5,0,0,1,69.488,74.99Zm8-8.5h-2.5v-1a1.5,1.5,0,0,0-1.489-1.5H68.489a1.5,1.5,0,0,0-1.5,1.5v1h-2.5a.5.5,0,0,0,0,1h13a.5.5,0,0,0,0-1Zm-9.5-1a.5.5,0,0,1,.5-.5H73.5a.49.49,0,0,1,.489.5v1h-6v-1Zm6.5,12.5h-7a1.5,1.5,0,0,1-1.5-1.5V68.983a.5.5,0,0,1,1,0v7.507a.5.5,0,0,0,.5.5h7a.5.5,0,0,0,.5-.5V69a.5.5,0,0,1,1,0v7.488A1.506,1.506,0,0,1,74.49,77.989Z" transform="translate(-63.99 -63.989)"/>
</svg>
