<svg xmlns="http://www.w3.org/2000/svg" width="14" height="14" viewBox="0 0 14 14">
  <defs>
    <style>
      .cls-1 {
        fill: #2e5bff;
      }
    </style>
  </defs>
  <path id="Button_oajssp" class="cls-1" d="M76.337,74.007V72.65a.5.5,0,0,0-.5-.5H73.255V70.233a3.547,3.547,0,1,0-4.508,0V72.15H66.163a.5.5,0,0,0-.5.5v1.357H64.5a.5.5,0,0,0-.5.5V77.5a.5.5,0,0,0,.5.5h13a.5.5,0,0,0,.5-.5V74.507a.5.5,0,0,0-.5-.5Zm-6.792-4.438a2.532,2.532,0,1,1,2.909,0l-.216.151v2.311a.125.125,0,0,1-.125.125H69.886a.125.125,0,0,1-.125-.125V69.72Zm-2.764,3.556H75.2a.125.125,0,0,1,.125.125v.594a.125.125,0,0,1-.125.125H66.781a.125.125,0,0,1-.125-.125V73.25A.125.125,0,0,1,66.781,73.125ZM77,77H65.125A.125.125,0,0,1,65,76.875V75.156a.125.125,0,0,1,.125-.125h11.75a.125.125,0,0,1,.125.125V77Z" transform="translate(-64 -64)"/>
</svg>
