<svg xmlns="http://www.w3.org/2000/svg" width="14" height="14" viewBox="0 0 14 14">
  <defs>
    <style>
      .cls-1 {
        fill: #2e5bff;
      }
    </style>
  </defs>
  <path id="Button_gz" class="cls-1" d="M68.149,89.159l3.144,1.731L70.7,87.247a1.344,1.344,0,0,1,.347-1.137l2.525-2.584-3.515-.543a1.314,1.314,0,0,1-.941-.7L67.58,78.953l-1.56,3.307a1.174,1.174,0,0,1-.941.7l-3.515.568,2.525,2.584a1.272,1.272,0,0,1,.347,1.137l-.569,3.643,3.144-1.731A1.123,1.123,0,0,1,68.149,89.159Zm-.693.9L64.312,91.8a.964.964,0,0,1-1.337-.439,1,1,0,0,1-.1-.646l.594-3.643a.267.267,0,0,0-.074-.233L60.9,84.25a1.086,1.086,0,0,1-.025-1.473,1.133,1.133,0,0,1,.569-.31l3.515-.543c.074,0,.149-.078.2-.129l1.56-3.307a.973.973,0,0,1,1.337-.465.994.994,0,0,1,.446.465l1.535,3.333a.2.2,0,0,0,.2.129l3.515.543a1.018,1.018,0,0,1,.842,1.163.91.91,0,0,1-.3.594l-2.525,2.584a.371.371,0,0,0-.074.233l.594,3.643a1.022,1.022,0,0,1-.817,1.189.992.992,0,0,1-.619-.1L67.7,90.064A.4.4,0,0,0,67.456,90.064Z" transform="translate(-60.595 -77.912)"/>
</svg>
