<svg xmlns="http://www.w3.org/2000/svg" width="14" height="12" viewBox="0 0 14 12">
  <path id="Button_qx" d="M10.984,96.059a1.735,1.735,0,0,1-3.3,0H.581a.6.6,0,0,1,0-1.2h7.1a1.735,1.735,0,0,1,3.3,0h2.43a.6.6,0,0,1,0,1.2h-2.43Zm-5.833-9.6h8.266a.6.6,0,0,1,0,1.2H5.15a1.735,1.735,0,0,1-3.3,0H.583a.574.574,0,0,1-.413-.175A.607.607,0,0,1,0,87.06a.59.59,0,0,1,.583-.6H1.849a1.735,1.735,0,0,1,3.3,0ZM3.5,87.66a.6.6,0,1,0-.583-.6A.592.592,0,0,0,3.5,87.66Zm9.917,3.6a.591.591,0,0,1-.585.6H1.168a.6.6,0,0,1,0-1.2H12.832a.593.593,0,0,1,.585.6Zm-4.083,4.8a.6.6,0,1,0-.583-.6A.592.592,0,0,0,9.333,96.059Z" transform="translate(0 -85.26)" fill="#ff9716"/>
</svg>
