<svg xmlns="http://www.w3.org/2000/svg" width="14" height="14" viewBox="0 0 14 14">
  <g id="Button_xqth" transform="translate(-64 -64)">
    <path id="路径_3197" data-name="路径 3197" d="M227.757,226.974a5.842,5.842,0,0,1-.684.683l-8.172-8.172a5.959,5.959,0,0,1,.683-.684Z" transform="translate(-152.328 -152.23)" fill="#f44a5e"/>
    <path id="路径_3198" data-name="路径 3198" d="M77.45,68.275A7.016,7.016,0,1,0,78,71,7,7,0,0,0,77.45,68.275Zm-1.87,6.6a6.042,6.042,0,0,1-.708.706,6,6,0,0,1-8.452-8.452,6.167,6.167,0,0,1,.706-.708,6,6,0,0,1,8.453,8.453Z" fill="#f44a5e"/>
  </g>
</svg>
