<svg xmlns="http://www.w3.org/2000/svg" width="14" height="14" viewBox="0 0 14 14">
  <path id="Button_zpg" d="M40.1,20.3H38.878V18.962A2.083,2.083,0,0,0,36.786,16.9H30.252a2.083,2.083,0,0,0-2.092,2.066v1.414a.587.587,0,0,0,1.175,0V18.962a.912.912,0,0,1,.918-.906h6.534a.912.912,0,0,1,.918.906V20.3H33.5a2.049,2.049,0,0,0-2.056,2.03v3.988H30.252a.912.912,0,0,1-.918-.906v-2.4a.587.587,0,0,0-1.175,0v2.407a2.083,2.083,0,0,0,2.092,2.066h1.189v1.378A2.049,2.049,0,0,0,33.5,30.9H40.1a2.049,2.049,0,0,0,2.056-2.03V22.341A2.05,2.05,0,0,0,40.1,20.3Zm-7.488,2.03a.878.878,0,0,1,.881-.87H37.7v3.951a.912.912,0,0,1-.918.906h-4.17Zm8.369,6.525a.878.878,0,0,1-.881.87H33.5a.878.878,0,0,1-.881-.87V27.481h4.17a2.083,2.083,0,0,0,2.092-2.066V21.464H40.1a.878.878,0,0,1,.881.87Z" transform="translate(-28.16 -16.896)"/>
</svg>
