<svg xmlns="http://www.w3.org/2000/svg" width="14" height="14" viewBox="0 0 20 20">
  <defs>
    <style>
      .cls-1 {
        fill: #2e5bff;
      }
    </style>
  </defs>
  <path id="cz_bj" class="cls-1" d="M16.042,20H3.944A3.951,3.951,0,0,1,0,16.053V3.947A3.951,3.951,0,0,1,3.944,0H9.993a.789.789,0,0,1,0,1.579H3.944A2.373,2.373,0,0,0,1.578,3.947V16.053a2.373,2.373,0,0,0,2.367,2.368h12.1a2.373,2.373,0,0,0,2.367-2.368V10a.789.789,0,1,1,1.578,0v6.053A3.951,3.951,0,0,1,16.042,20ZM16.7,1.794l.742.748.747.742L14.563,6.916l-4.339,4.337-1.636.152.152-1.637,4.334-4.342L16.7,1.8ZM16.7,0a1.051,1.051,0,0,0-.747.311l-4,4-4.6,4.637a.527.527,0,0,0-.153.321l-.294,3.279a.527.527,0,0,0,.526.574h.047l3.277-.294a.526.526,0,0,0,.321-.153l4.607-4.611,4-4a1.053,1.053,0,0,0,0-1.489L18.561,1.426,17.446.311A1.052,1.052,0,0,0,16.7,0Z"/>
</svg>
