<svg xmlns="http://www.w3.org/2000/svg" width="24" height="18" viewBox="0 0 24 18">
  <defs>
    <style>
      .cls-1 {
        fill: #2e5bff;
      }
    </style>
  </defs>
  <path id="cz_ck" class="cls-1" d="M86.3,134.12a13.127,13.127,0,0,0-22.2,0,5.06,5.06,0,0,0,0,5.76A13.827,13.827,0,0,0,75.2,146a13.8,13.8,0,0,0,11.1-6.12A5.06,5.06,0,0,0,86.3,134.12Zm-1.2,4.4c-2.511,3.715-6.126,5.842-9.917,5.842s-7.406-2.127-9.917-5.842a2.768,2.768,0,0,1,0-3.044c2.511-3.715,6.126-5.842,9.917-5.842s7.406,2.127,9.917,5.842A2.831,2.831,0,0,1,85.1,138.522Zm-9.885-7.249a5.729,5.729,0,1,0,5.6,5.727A5.67,5.67,0,0,0,75.216,131.273Zm0,9.818a4.092,4.092,0,1,1,4-4.091A4.047,4.047,0,0,1,75.216,141.091Z" transform="translate(-63.2 -128)"/>
</svg>
