<svg xmlns="http://www.w3.org/2000/svg" width="20" height="20" viewBox="0 0 20 20">
  <defs>
    <style>
      .cls-1 {
        fill: #d61518;
      }
    </style>
  </defs>
  <path id="cz_del" class="cls-1" d="M76.13,79.7a.713.713,0,0,1-.714-.714V71.131a.714.714,0,1,1,1.428,0v7.856A.716.716,0,0,1,76.13,79.7Zm-4.285,0a.713.713,0,0,1-.714-.714V71.131a.714.714,0,1,1,1.428,0v7.856A.716.716,0,0,1,71.845,79.7ZM83.275,67.56H79.7V66.132a2.135,2.135,0,0,0-2.127-2.142H70.417a2.143,2.143,0,0,0-2.142,2.142V67.56H64.7a.714.714,0,0,0,0,1.428H83.275a.714.714,0,0,0,0-1.428ZM69.7,66.132a.718.718,0,0,1,.714-.714h7.161a.7.7,0,0,1,.7.714V67.56H69.7V66.132ZM78.99,83.989h-10a2.143,2.143,0,0,1-2.142-2.142V71.123a.714.714,0,0,1,1.428,0V81.847a.715.715,0,0,0,.714.714h10a.713.713,0,0,0,.714-.714V71.15a.714.714,0,0,1,1.428,0v10.7A2.152,2.152,0,0,1,78.99,83.989Z" transform="translate(-63.99 -63.989)"/>
</svg>
