<svg xmlns="http://www.w3.org/2000/svg" width="20" height="20.001" viewBox="0 0 20 20.001">
  <defs>
    <style>
      .cls-1 {
        fill: #2e5bff;
      }
    </style>
  </defs>
  <path id="cz_lcbjh" class="cls-1" d="M165.859,114.977a9.037,9.037,0,0,1-3.621-.844,8.839,8.839,0,0,0-6.906.015.96.96,0,0,1-.817-.071.748.748,0,0,1-.386-.639v-10a.776.776,0,0,1,.544-.712,14.765,14.765,0,0,1,4.229-.827,13.021,13.021,0,0,1,4.071.834.642.642,0,0,1,.094.044,6.663,6.663,0,0,0,2.727.661,6.422,6.422,0,0,0,2.683-.656.974.974,0,0,1,.88-.012.762.762,0,0,1,.444.671v10a.754.754,0,0,1-.4.646A7.822,7.822,0,0,1,165.859,114.977ZM158.8,111.9a14.123,14.123,0,0,1,4.143.829c.033.012.066.027.1.041a7.162,7.162,0,0,0,2.815.668,5.846,5.846,0,0,0,2.194-.461v-8.353a7.883,7.883,0,0,1-2.266.354,8.554,8.554,0,0,1-3.563-.849,10.952,10.952,0,0,0-3.329-.69,11.583,11.583,0,0,0-3.028.539v8.377A11.793,11.793,0,0,1,158.8,111.9Zm2.285,10h-9.575v-19.23a.876.876,0,0,1,1.739,0v17.691h7.836a.775.775,0,1,1,0,1.539Zm-8.706,0h-1.714a.774.774,0,1,1,0-1.536h1.714a.774.774,0,1,1,0,1.536Zm0,0" transform="translate(-149.8 -101.9)"/>
</svg>
