<svg xmlns="http://www.w3.org/2000/svg" width="16" height="16" viewBox="0 0 20 18">
  <defs>
    <style>
      .cls-1 {
        fill: #2e5bff;
      }
    </style>
  </defs>
  <path id="cz_zp" class="cls-1" d="M62.009,138.577H55.16l.452-.624a.828.828,0,0,0,.094-.17,3.174,3.174,0,0,0-.336-3.162,2.3,2.3,0,0,0-3.615.526l-2.145,2.885a10.9,10.9,0,0,0-2.259,2.07l-2.254.15a.746.746,0,0,0-.655.775v7.619a.743.743,0,0,0,.678.776l2.619.083,5.79,2.071a3.343,3.343,0,0,0,1.456.377h0a2.038,2.038,0,0,0,1.936-1.341,2.655,2.655,0,0,0,.167-.648c.507-.017,1.355-.284,1.758-1.779a3.248,3.248,0,0,0,.029-1.565,1.98,1.98,0,0,0,.913-1.514,3.634,3.634,0,0,0-.057-1.455h2.225a2.341,2.341,0,0,0,2.485-2.451A2.527,2.527,0,0,0,62.009,138.577Zm-.075,3.52H56.765a.782.782,0,0,0,0,1.554c1.174,0,1.493.246,1.576.351a1.362,1.362,0,0,1,.067.889c-.022.171-.058.457-.616.457a1.258,1.258,0,0,1-.158-.009.713.713,0,0,0-.805.627.777.777,0,0,0,.558.9.135.135,0,0,1,.107.075,1.25,1.25,0,0,1,.011.817c-.177.654-.4.654-.472.654a.807.807,0,0,1-.376-.12.64.64,0,0,0-.829.08.851.851,0,0,0-.172.917.97.97,0,0,1,0,.671.645.645,0,0,1-.67.44h0a2.322,2.322,0,0,1-.935-.26l-5.978-2.146a.6.6,0,0,0-.2-.037l-2.041-.065V141.76l1.928-.128a.691.691,0,0,0,.553-.37,8.48,8.48,0,0,1,2.124-1.976.721.721,0,0,0,.172-.166l2.237-3.011c.415-.614,1.121-.847,1.533-.389.342.381.15,1.116.075,1.353l-1.3,1.794a.847.847,0,0,0-.086.823.7.7,0,0,0,.629.442l8.265,0a1.086,1.086,0,0,1,1.082,1.071C63.047,141.98,62.366,142.1,61.934,142.1Z" transform="translate(-44.442 -133.954)"/>
</svg>
