<svg xmlns="http://www.w3.org/2000/svg" width="18" height="16" viewBox="0 0 18 16">
  <path id="modular_xx" d="M15.756,44.032H2.25A2.246,2.246,0,0,0,0,46.268v8.957a2.246,2.246,0,0,0,2.25,2.236H6.667l4.66,2.571V57.461H15.75A2.246,2.246,0,0,0,18,55.225V46.268a2.237,2.237,0,0,0-2.244-2.236ZM4.12,51.879A1.08,1.08,0,1,1,5.206,50.8a1.084,1.084,0,0,1-1.086,1.08Zm4.892,0A1.08,1.08,0,1,1,10.1,50.8a1.084,1.084,0,0,1-1.086,1.08Zm4.892,0A1.08,1.08,0,1,1,14.99,50.8a1.084,1.084,0,0,1-1.086,1.08Zm0,0" transform="translate(0 -44.032)" fill="#2e5bff"/>
</svg>
