<svg xmlns="http://www.w3.org/2000/svg" width="16" height="16" viewBox="0 0 16 16">
  <g id="modular_xtxq" transform="translate(-0.001)">
    <path id="路径_3218" data-name="路径 3218" d="M249.394,477.828h7.061v2.689h-7.061Z" transform="translate(-245.014 -470.752)" fill="#2e5bff"/>
    <path id="路径_3219" data-name="路径 3219" d="M249.394,678.49h7.061v2.689h-7.061Z" transform="translate(-245.014 -668.442)" fill="#2e5bff"/>
    <path id="路径_3220" data-name="路径 3220" d="M14.046,2.312H11.284V0H9.328V2.312H6.671V0H4.716V2.312H1.956A1.956,1.956,0,0,0,0,4.268v9.777A1.956,1.956,0,0,0,1.956,16H14.046A1.955,1.955,0,0,0,16,14.045V4.268a1.955,1.955,0,0,0-1.955-1.955Zm0,11.732H1.956V5.733H14.046Z" fill="#2e5bff"/>
  </g>
</svg>
