<svg xmlns="http://www.w3.org/2000/svg" width="14" height="14" viewBox="0 0 16 16">
  <path id="modular_zfmx" d="M114.667,106.667a8,8,0,1,0,8,8A8,8,0,0,0,114.667,106.667Zm2.665,9.6a.8.8,0,0,1,0,1.6h-1.865v1.065a.8.8,0,0,1-1.6,0v-1.065H112a.8.8,0,1,1,0-1.6h1.865v-1.335H112a.8.8,0,1,1,0-1.6h1.52l-2.076-2.076a.8.8,0,0,1,1.116-1.128l2.105,2.105,2.055-2.055a.777.777,0,0,1,1.1,1.1l-2.067,2.067h1.571a.8.8,0,0,1,0,1.6h-1.857v1.322h1.865Z" transform="translate(-106.667 -106.667)" fill="#2e5bff"/>
</svg>
