<svg xmlns="http://www.w3.org/2000/svg" width="14" height="14" viewBox="0 0 14 16">
  <defs>
    <style>
      .cls-1 {
        fill: #2e5bff;
      }
    </style>
  </defs>
  <path id="modular_lcjd" class="cls-1" d="M60.808,12.3l0,.1a3.665,3.665,0,0,0,.341,1.55L57.7,16l-3.452-2.05a3.673,3.673,0,0,0,.339-1.646L57.7,14.152,60.808,12.3Zm2.067-3.19V4.924l-2.69-1.6a3.616,3.616,0,0,0,.84-1.349L64.433,4V8.8a3.4,3.4,0,0,0-1.556.312Zm-10.36,0A3.4,3.4,0,0,0,50.96,8.8V4l3.465-2.058A3.6,3.6,0,0,0,55.251,3.3L52.516,4.923v4.19ZM57.7,3.2A1.578,1.578,0,0,1,56.14,1.6a1.556,1.556,0,1,1,3.111,0A1.578,1.578,0,0,1,57.7,3.2Zm-5.452,9.958a1.6,1.6,0,1,1,1.556-1.6,1.578,1.578,0,0,1-1.556,1.6Zm10.889,0a1.6,1.6,0,1,1,1.556-1.6,1.578,1.578,0,0,1-1.556,1.6ZM57.705,3.92l3.368,2v4l-3.368,2-3.368-2v-4Z" transform="translate(-50.688)"/>
</svg>
