<svg xmlns="http://www.w3.org/2000/svg" width="14" height="16" viewBox="0 0 14 16">
  <path id="modular_czrz" d="M251.87,196.352H241.615a1.846,1.846,0,0,0-1.871,1.821v1.354h.858a.4.4,0,0,1,.4.391v.91a.4.4,0,0,1-.4.391h-.858v2.285h.858a.4.4,0,0,1,.4.391v.91a.4.4,0,0,1-.4.391h-.858v2.285h.858a.4.4,0,0,1,.4.391v.91a.4.4,0,0,1-.4.391h-.858v1.354a1.846,1.846,0,0,0,1.871,1.821h10.258a1.846,1.846,0,0,0,1.871-1.821V198.173A1.848,1.848,0,0,0,251.87,196.352Zm.1,6.846-1.913-1.215-1.913,1.215v-4.735a.487.487,0,0,1,.495-.481h2.836a.487.487,0,0,1,.495.481Z" transform="translate(-239.744 -196.352)" fill="#ff9716"/>
</svg>
