<svg xmlns="http://www.w3.org/2000/svg" xmlns:xlink="http://www.w3.org/1999/xlink" width="18" height="18" viewBox="0 0 18 18">
  <defs>
    <clipPath id="clip-path">
      <path id="Combined_Shape" data-name="Combined Shape" d="M17.473,18H13.957a.585.585,0,0,1-.527-.628V8.163a.585.585,0,0,1,.527-.628h3.515A.585.585,0,0,1,18,8.163v9.209A.585.585,0,0,1,17.473,18Zm-2.988-3.349v2.093h2.461V14.651Zm0-5.86v4.6h2.461v-4.6ZM10.758,18H7.242a.585.585,0,0,1-.527-.628V.628A.585.585,0,0,1,7.242,0h3.515a.585.585,0,0,1,.527.628V17.372A.585.585,0,0,1,10.758,18ZM7.77,10.465v6.28H10.23v-6.28Zm0-9.209V9.209h2.46V1.256ZM4.043,18H.527A.585.585,0,0,1,0,17.372V8.163a.585.585,0,0,1,.527-.628H4.043a.585.585,0,0,1,.527.628v9.209A.585.585,0,0,1,4.043,18ZM1.055,14.651v2.093H3.515V14.651Zm0-5.86v4.6H3.515v-4.6Z" fill="#2e5bff"/>
    </clipPath>
  </defs>
  <g id="nav_htys_hover" transform="translate(-2 -2)">
    <g id="组_2" data-name="组 2" transform="translate(2 2)">
      <path id="Combined_Shape-2" data-name="Combined Shape" d="M17.473,18H13.957a.585.585,0,0,1-.527-.628V8.163a.585.585,0,0,1,.527-.628h3.515A.585.585,0,0,1,18,8.163v9.209A.585.585,0,0,1,17.473,18Zm-2.988-3.349v2.093h2.461V14.651Zm0-5.86v4.6h2.461v-4.6ZM10.758,18H7.242a.585.585,0,0,1-.527-.628V.628A.585.585,0,0,1,7.242,0h3.515a.585.585,0,0,1,.527.628V17.372A.585.585,0,0,1,10.758,18ZM7.77,10.465v6.28H10.23v-6.28Zm0-9.209V9.209h2.46V1.256ZM4.043,18H.527A.585.585,0,0,1,0,17.372V8.163a.585.585,0,0,1,.527-.628H4.043a.585.585,0,0,1,.527.628v9.209A.585.585,0,0,1,4.043,18ZM1.055,14.651v2.093H3.515V14.651Zm0-5.86v4.6H3.515v-4.6Z" fill="#2e5bff"/>
    </g>
  </g>
</svg>
