<svg xmlns="http://www.w3.org/2000/svg" width="20.2" height="18.229" viewBox="0 0 20.2 18.229">
  <path id="nav_sy" d="M85.033,100.423,76.07,92.559l-.06-.047a1.352,1.352,0,0,0-1.528,0l-9.021,7.913a.611.611,0,0,0-.04.89.675.675,0,0,0,.928.039l.544-.476V109.2a1.1,1.1,0,0,0,1.121,1.075h4.541a1.15,1.15,0,0,0,1.172-1.124v-4.063a.646.646,0,0,1,.658-.631h1.729a.646.646,0,0,1,.658.631v4.063a1.15,1.15,0,0,0,1.172,1.124h4.541A1.1,1.1,0,0,0,83.6,109.2v-8.323l.544.476a.662.662,0,0,0,.443.165.67.67,0,0,0,.485-.2.615.615,0,0,0-.042-.892Zm-2.745,8.591H78.084v-3.926a1.933,1.933,0,0,0-1.971-1.89H74.379a1.933,1.933,0,0,0-1.971,1.89v3.923H68.2V99.723l7.042-6.18,7.042,6.18v9.29Z" transform="translate(-65.147 -92.146)" fill="#bfc5d2" stroke="#bfc5d2" stroke-width="0.2"/>
</svg>
