<svg xmlns="http://www.w3.org/2000/svg" xmlns:xlink="http://www.w3.org/1999/xlink" width="18" height="18" viewBox="0 0 18 18">
  <defs>
    <linearGradient id="linear-gradient" x2="1" y2="0.947" gradientUnits="objectBoundingBox">
      <stop offset="0" stop-color="#d61518"/>
      <stop offset="0.459" stop-color="#d61518"/>
      <stop offset="1" stop-color="#ff9716"/>
    </linearGradient>
    <clipPath id="clip-path">
      <path id="Combined_Shape" data-name="Combined Shape" d="M17.2,18H11.006a.8.8,0,0,1-.8-.8V11.006a.8.8,0,0,1,.8-.8H17.2a.8.8,0,0,1,.8.8V17.2A.8.8,0,0,1,17.2,18Zm-5.648-6.448v5.1h5.1v-5.1ZM6.994,18H.8a.8.8,0,0,1-.8-.8V11.006a.8.8,0,0,1,.8-.8H6.994a.8.8,0,0,1,.8.8V17.2A.8.8,0,0,1,6.994,18ZM1.345,11.552v5.1h5.1v-5.1ZM17.2,7.794H11.006a.8.8,0,0,1-.8-.8V.8a.8.8,0,0,1,.8-.8H17.2a.8.8,0,0,1,.8.8V6.994A.8.8,0,0,1,17.2,7.794ZM11.552,1.345v5.1h5.1v-5.1ZM6.994,7.794H.8a.8.8,0,0,1-.8-.8V.8A.8.8,0,0,1,.8,0H6.994a.8.8,0,0,1,.8.8V6.994A.8.8,0,0,1,6.994,7.794ZM1.345,1.345v5.1h5.1v-5.1Z" transform="translate(0)" fill="url(#linear-gradient)"/>
    </clipPath>
  </defs>
  <g id="nav_wdxq_hover" transform="translate(-2.3 -2.3)">
    <g id="组_5" data-name="组 5" transform="translate(2.3 2.3)">
      <path id="Combined_Shape-2" data-name="Combined Shape" d="M17.2,18H11.006a.8.8,0,0,1-.8-.8V11.006a.8.8,0,0,1,.8-.8H17.2a.8.8,0,0,1,.8.8V17.2A.8.8,0,0,1,17.2,18Zm-5.648-6.448v5.1h5.1v-5.1ZM6.994,18H.8a.8.8,0,0,1-.8-.8V11.006a.8.8,0,0,1,.8-.8H6.994a.8.8,0,0,1,.8.8V17.2A.8.8,0,0,1,6.994,18ZM1.345,11.552v5.1h5.1v-5.1ZM17.2,7.794H11.006a.8.8,0,0,1-.8-.8V.8a.8.8,0,0,1,.8-.8H17.2a.8.8,0,0,1,.8.8V6.994A.8.8,0,0,1,17.2,7.794ZM11.552,1.345v5.1h5.1v-5.1ZM6.994,7.794H.8a.8.8,0,0,1-.8-.8V.8A.8.8,0,0,1,.8,0H6.994a.8.8,0,0,1,.8.8V6.994A.8.8,0,0,1,6.994,7.794ZM1.345,1.345v5.1h5.1v-5.1Z" transform="translate(0 0)" fill="url(#linear-gradient)"/>
    </g>
  </g>
</svg>
