<svg xmlns="http://www.w3.org/2000/svg" xmlns:xlink="http://www.w3.org/1999/xlink" width="18" height="18" viewBox="0 0 18 18">
  <defs>
    <clipPath id="clip-path">
      <path id="Settings" d="M9.791,18H8.2a1.109,1.109,0,0,1-1.1-.929L6.9,15.808a7.158,7.158,0,0,1-1.188-.489l-1.057.752a1.093,1.093,0,0,1-.642.207,1.106,1.106,0,0,1-.787-.327L2.1,14.83A1.107,1.107,0,0,1,1.981,13.4l.741-1.03a6.946,6.946,0,0,1-.515-1.222L.929,10.927A1.109,1.109,0,0,1,0,9.829V8.246a1.109,1.109,0,0,1,.929-1.1l1.248-.211a7.015,7.015,0,0,1,.5-1.23L1.925,4.651a1.109,1.109,0,0,1,.12-1.432L3.17,2.1A1.11,1.11,0,0,1,4.6,1.978l1.034.744a6.911,6.911,0,0,1,1.221-.515L7.077.929A1.109,1.109,0,0,1,8.175,0H9.757a1.11,1.11,0,0,1,1.1.929l.211,1.248a7.021,7.021,0,0,1,1.271.522l1.046-.744a1.093,1.093,0,0,1,.642-.207,1.108,1.108,0,0,1,.787.326L15.932,3.2a1.106,1.106,0,0,1,.12,1.433L15.308,5.67A7.088,7.088,0,0,1,15.815,6.9l1.264.214A1.1,1.1,0,0,1,18,8.209V9.791a1.111,1.111,0,0,1-.929,1.1l-1.263.211a7.121,7.121,0,0,1-.508,1.226l.744,1.046a1.109,1.109,0,0,1-.12,1.432L14.8,15.925a1.111,1.111,0,0,1-1.432.12L12.33,15.3a7.217,7.217,0,0,1-1.226.508l-.214,1.263A1.111,1.111,0,0,1,9.791,18ZM5.678,14.225a.52.52,0,0,1,.255.068,6.254,6.254,0,0,0,1.542.632.506.506,0,0,1,.372.406l.263,1.58a.1.1,0,0,0,.1.083H9.791a.1.1,0,0,0,.1-.083l.267-1.58a.5.5,0,0,1,.372-.406A6.018,6.018,0,0,0,12.1,14.27a.519.519,0,0,1,.261-.07.5.5,0,0,1,.292.093l1.3.929a.1.1,0,0,0,.057.019.1.1,0,0,0,.071-.03l1.121-1.121a.1.1,0,0,0,.011-.128l-.929-1.308a.511.511,0,0,1-.023-.552,6.067,6.067,0,0,0,.654-1.576.506.506,0,0,1,.406-.372l1.58-.263a.105.105,0,0,0,.087-.1V8.209a.1.1,0,0,0-.083-.1l-1.58-.266a.5.5,0,0,1-.407-.373A6.011,6.011,0,0,0,14.274,5.9a.5.5,0,0,1,.023-.552l.928-1.3a.1.1,0,0,0-.011-.128L14.093,2.79a.1.1,0,0,0-.128-.011l-1.3.932a.509.509,0,0,1-.293.093.516.516,0,0,1-.259-.07A6.108,6.108,0,0,0,10.5,3.072a.511.511,0,0,1-.377-.41L9.863,1.094a.1.1,0,0,0-.1-.083H8.182a.1.1,0,0,0-.1.083L7.813,2.685a.514.514,0,0,1-.372.406,5.925,5.925,0,0,0-1.572.662.517.517,0,0,1-.556-.023l-1.3-.925a.1.1,0,0,0-.057-.019.093.093,0,0,0-.071.03l-1.12,1.12a.1.1,0,0,0-.011.128l.936,1.316a.5.5,0,0,1,.026.549,6.015,6.015,0,0,0-.643,1.579.509.509,0,0,1-.41.377L1.1,8.149a.1.1,0,0,0-.083.1V9.829a.1.1,0,0,0,.083.1l1.59.271a.514.514,0,0,1,.407.372,5.911,5.911,0,0,0,.662,1.572.515.515,0,0,1-.023.556L2.809,14a.1.1,0,0,0,.011.128l1.12,1.12a.1.1,0,0,0,.071.031.112.112,0,0,0,.057-.019l1.316-.936A.49.49,0,0,1,5.678,14.225ZM9,12.882A3.884,3.884,0,1,1,12.886,9,3.888,3.888,0,0,1,9,12.882ZM9,6.129A2.869,2.869,0,1,0,11.871,9,2.872,2.872,0,0,0,9,6.129Z" fill="#bfc5d2" stroke="#bfc5d2" stroke-miterlimit="10" stroke-width="0.2"/>
    </clipPath>
  </defs>
  <g id="nav_xtgl" transform="translate(-2 -2)" style="isolation: isolate">
    <g id="组_4" data-name="组 4" transform="translate(2 2)">
      <g id="Settings-2" data-name="Settings" fill="#bfc5d2" stroke-miterlimit="10">
        <path d="M 9.791376113891602 17.89999961853027 L 8.204575538635254 17.89999961853027 C 7.707655906677246 17.89999961853027 7.287545680999756 17.54438972473145 7.20564603805542 17.05443000793457 L 6.99504566192627 15.79166984558105 L 6.984925746917725 15.73099994659424 L 6.926216125488281 15.71267032623291 C 6.512955665588379 15.58362007141113 6.118765830993652 15.4213399887085 5.754575729370117 15.23031044006348 L 5.700175762176514 15.20178031921387 L 5.65013599395752 15.23740005493164 L 4.593075752258301 15.98989963531494 C 4.422055721282959 16.11301040649414 4.220145702362061 16.17791938781738 4.008726119995117 16.17791938781738 C 3.739265918731689 16.17791938781738 3.485055923461914 16.07210922241211 3.292925834655762 15.87996959686279 L 2.172685861587524 14.75973033905029 C 1.819905877113342 14.40991020202637 1.77379584312439 13.86153030395508 2.062745809555054 13.45551013946533 L 2.803615808486938 12.42560005187988 L 2.840115785598755 12.37485027313232 L 2.81048583984375 12.31980037689209 C 2.601855993270874 11.93220996856689 2.431025981903076 11.52690982818604 2.302745819091797 11.11515998840332 L 2.284515857696533 11.05661964416504 L 2.224075794219971 11.04631996154785 L 0.945875883102417 10.82843017578125 C 0.4556058943271637 10.74647998809814 0.09999589622020721 10.32637023925781 0.09999589622020721 9.829449653625488 L 0.09999589622020721 8.245880126953125 C 0.09999589622020721 7.748960018157959 0.4556058943271637 7.328849792480469 0.9455658793449402 7.246950149536133 L 2.19394588470459 7.036330223083496 L 2.255175828933716 7.026000022888184 L 2.273065805435181 6.966539859771729 C 2.400415897369385 6.543350219726563 2.566145896911621 6.135570049285889 2.765666007995605 5.754519939422607 L 2.79412579536438 5.700170040130615 L 2.758575916290283 5.650179862976074 L 2.006886005401611 4.593120098114014 C 1.718815922737122 4.189070224761963 1.764725923538208 3.640939950942993 2.115985870361328 3.289680004119873 L 3.24017596244812 2.168730020523071 C 3.429646015167236 1.976300001144409 3.683665990829468 1.870679974555969 3.95607590675354 1.870679974555969 C 4.169395923614502 1.870679974555969 4.372715950012207 1.935870051383972 4.544045925140381 2.059200048446655 L 5.578435897827148 2.80361008644104 L 5.629235744476318 2.840169906616211 L 5.68431568145752 2.810450077056885 C 6.070655822753906 2.602060079574585 6.475656032562256 2.431240081787109 6.888085842132568 2.302740097045898 L 6.946576118469238 2.284519910812378 L 6.956905841827393 2.224139928817749 L 7.175615787506104 0.9459499716758728 C 7.257575988769531 0.4556100070476532 7.677685737609863 0.1000000014901161 8.174606323242188 0.1000000014901161 L 9.757355690002441 0.1000000014901161 C 10.25474548339844 0.1000000014901161 10.67519569396973 0.4556100070476532 10.75709629058838 0.9455699920654297 L 10.96772575378418 2.193939924240112 L 10.9780855178833 2.255330085754395 L 11.03774547576904 2.273129940032959 C 11.46251583099365 2.399869918823242 11.88399600982666 2.573149919509888 12.29047584533691 2.788160085678101 L 12.34498596191406 2.816989898681641 L 12.39522552490234 2.781229972839355 L 13.44094562530518 2.036829948425293 C 13.61196613311768 1.913720011711121 13.81387615203857 1.848809957504272 14.0252857208252 1.848809957504272 C 14.29452610015869 1.848809957504272 14.54878616333008 1.954390048980713 14.74123573303223 2.146090030670166 L 15.86130619049072 3.266979932785034 C 16.21417617797852 3.616139888763428 16.25990676879883 4.164490222930908 15.97046566009521 4.571219921112061 L 15.2261962890625 5.611889839172363 L 15.19020557403564 5.662220001220703 L 15.21917629241943 5.71688985824585 C 15.42184543609619 6.099269866943359 15.59029579162598 6.506040096282959 15.71985626220703 6.925899982452393 L 15.73800563812256 6.984729766845703 L 15.79871559143066 6.995009899139404 L 17.06233596801758 7.208849906921387 C 17.55437660217285 7.291840076446533 17.90663528442383 7.711740016937256 17.90000534057617 8.207280158996582 L 17.89999580383301 9.791379928588867 C 17.89999580383301 10.28802967071533 17.54432678222656 10.7084903717041 17.05429649353027 10.79113960266113 L 15.79166603088379 11.00170993804932 L 15.73046588897705 11.01191997528076 L 15.71243572235107 11.07127952575684 C 15.59148597717285 11.46936988830566 15.42299556732178 11.87586975097656 15.21165561676025 12.27950000762939 L 15.18318557739258 12.33388042449951 L 15.21877574920654 12.38387966156006 L 15.96317577362061 13.42959976196289 C 16.2512264251709 13.83360958099365 16.2053165435791 14.38173961639404 15.8540563583374 14.73299980163574 L 14.73299598693848 15.85404968261719 C 14.54138565063477 16.0456600189209 14.28745555877686 16.15118980407715 14.01799583435059 16.15118980407715 C 13.80393600463867 16.15118980407715 13.60062599182129 16.08628082275391 13.43003559112549 15.96347999572754 L 12.38808631896973 15.21887969970703 L 12.33785629272461 15.18297958374023 L 12.2832555770874 15.21181011199951 C 11.90079593658447 15.41372966766357 11.49392604827881 15.58222961425781 11.07394599914551 15.71261978149414 L 11.01525592803955 15.73083972930908 L 11.00499629974365 15.79141998291016 L 10.79114627838135 17.05422019958496 C 10.70848560333252 17.54433059692383 10.28802585601807 17.89999961853027 9.791376113891602 17.89999961853027 Z M 5.678155899047852 14.32454967498779 C 5.749105930328369 14.32454967498779 5.822035789489746 14.34399032592773 5.883495807647705 14.37930011749268 C 6.382276058197021 14.66526031494141 6.909475803375244 14.8812198638916 7.450515747070313 15.02120971679688 C 7.604546070098877 15.06021022796631 7.721426010131836 15.1881103515625 7.748805999755859 15.34716987609863 L 8.01197624206543 16.92617034912109 C 8.026535987854004 17.02187919616699 8.109335899353027 17.09235000610352 8.208625793457031 17.09235000610352 L 9.791376113891602 17.09235000610352 C 9.890645980834961 17.09235000610352 9.97343635559082 17.02189064025879 9.988245964050293 16.9248104095459 L 10.255295753479 15.34689998626709 C 10.28011608123779 15.18749046325684 10.39675617218018 15.0602502822876 10.55264568328857 15.02143955230713 C 11.12233543395996 14.87409019470215 11.66119575500488 14.6502103805542 12.15515613555908 14.35581016540527 C 12.21824550628662 14.31912040710449 12.29105567932129 14.29944038391113 12.36477565765381 14.29944038391113 C 12.44978618621826 14.29944038391113 12.53079605102539 14.32520961761475 12.59906578063965 14.37397003173828 L 13.90327548980713 15.30311012268066 C 13.94213581085205 15.32857036590576 13.97959613800049 15.34029960632324 14.01799583435059 15.34029960632324 C 14.07212543487549 15.34029960632324 14.12122631072998 15.31980991363525 14.15999603271484 15.28104019165039 L 15.28104591369629 14.15999031066895 C 15.34752559661865 14.09183979034424 15.3571662902832 13.98260974884033 15.30433559417725 13.90501976013184 L 14.37412548065186 12.59523963928223 C 14.28177547454834 12.46450996398926 14.27466583251953 12.29018020629883 14.35615634918213 12.1513204574585 C 14.64999580383301 11.65664958953857 14.87383556365967 11.11758041381836 15.02119636535645 10.54955005645752 C 15.06020545959473 10.39546966552734 15.18810558319092 10.2785701751709 15.34718608856201 10.25119018554688 L 16.92617607116699 9.988030433654785 C 17.01806640625 9.973770141601563 17.0883960723877 9.896089553833008 17.09609603881836 9.799309730529785 L 17.09640502929688 9.795350074768066 L 17.09640502929688 9.791379928588867 L 17.09640502929688 8.208620071411133 C 17.09640502929688 8.109350204467773 17.02593612670898 8.026559829711914 16.92884635925293 8.011750221252441 L 15.35090637207031 7.745510101318359 C 15.1918363571167 7.720739841461182 15.06424617767334 7.603630065917969 15.02458572387695 7.446969985961914 C 14.87837600708008 6.879380226135254 14.65477561950684 6.34050989151001 14.35990619659424 5.84492015838623 C 14.27736568450928 5.705180168151855 14.28426551818848 5.531310081481934 14.37766551971436 5.402239799499512 L 15.30640602111816 4.096670150756836 C 15.36171627044678 4.011370182037354 15.35160636901855 3.907320022583008 15.28428554534912 3.840009927749634 L 14.16407585144043 2.718980073928833 C 14.10885620117188 2.665369987487793 14.04639625549316 2.6596999168396 14.02205562591553 2.6596999168396 C 13.98521614074707 2.6596999168396 13.94922542572021 2.671099901199341 13.91202545166016 2.694550037384033 L 13.90946578979492 2.696160078048706 L 13.90700626373291 2.697930097579956 L 12.60936546325684 3.630249977111816 C 12.54028606414795 3.678659915924072 12.45873546600342 3.704610109329224 12.37449550628662 3.704610109329224 C 12.30182552337646 3.704610109329224 12.22958564758301 3.684930086135864 12.16557598114014 3.647700071334839 C 11.65456581115723 3.346529960632324 11.1030855178833 3.120229959487915 10.52694606781006 2.975379943847656 C 10.37060546875 2.935640096664429 10.25178623199463 2.806220054626465 10.22448635101318 2.645730018615723 L 9.961276054382324 1.077759981155396 C 9.94671630859375 0.9821599721908569 9.864255905151367 0.9117000102996826 9.765456199645996 0.9117000102996826 L 8.181896209716797 0.9117000102996826 C 8.083075523376465 0.9117000102996826 8.000625610351563 0.9821699857711792 7.985836029052734 1.079259991645813 L 7.714756011962891 2.668370008468628 C 7.688055992126465 2.824069976806641 7.570466041564941 2.952120065689087 7.415205955505371 2.994519948959351 C 6.862565994262695 3.136559963226318 6.324656009674072 3.362950086593628 5.81786584854126 3.667020082473755 C 5.755556106567383 3.703639984130859 5.682886123657227 3.723239898681641 5.608495712280273 3.723239898681641 C 5.522665977478027 3.723239898681641 5.4402756690979 3.697289943695068 5.370245933532715 3.648200035095215 L 4.074095726013184 2.723649978637695 C 4.03955602645874 2.698970079421997 4.000916004180908 2.686429977416992 3.95931601524353 2.686429977416992 C 3.903645992279053 2.686429977416992 3.857195854187012 2.705810070037842 3.817325830459595 2.745690107345581 L 2.697085857391357 3.865930080413818 C 2.628345966339111 3.934669971466064 2.619035959243774 4.045289993286133 2.675435781478882 4.123239994049072 L 3.611346006393433 5.438849925994873 C 3.705205917358398 5.568580150604248 3.713295936584473 5.741320133209229 3.632425785064697 5.879580020904541 C 3.342895984649658 6.372280120849609 3.122895956039429 6.91225004196167 2.978645801544189 7.484330177307129 C 2.939495801925659 7.640890121459961 2.810135841369629 7.759550094604492 2.649035930633545 7.786829948425293 L 1.081815838813782 8.050060272216797 C 0.9858359098434448 8.064459800720215 0.9149358868598938 8.146929740905762 0.9149358868598938 8.245880126953125 L 0.9149358868598938 9.829449653625488 C 0.9149358868598938 9.928440093994141 0.9858558773994446 10.01091003417969 1.083565950393677 10.02554988861084 L 2.671595811843872 10.29656982421875 C 2.827805995941162 10.32326030731201 2.956165790557861 10.44085025787354 2.998575925827026 10.59615039825439 C 3.141455888748169 11.15128040313721 3.367855787277222 11.68920993804932 3.671115875244141 12.19355010986328 C 3.752895832061768 12.33248043060303 3.745735883712769 12.50839042663574 3.652385950088501 12.64091014862061 L 2.727695941925049 13.9372501373291 C 2.672305822372437 14.02264976501465 2.682415962219238 14.12670040130615 2.749735832214355 14.19400978088379 L 3.869975805282593 15.31424999237061 C 3.922505855560303 15.36835956573486 3.98680591583252 15.3743200302124 4.011965751647949 15.3743200302124 C 4.057975769042969 15.3743200302124 4.095465660095215 15.35525035858154 4.11966609954834 15.34090042114258 L 4.123245716094971 15.33878040313721 L 4.126646041870117 15.33635997772217 L 5.442905902862549 14.39999008178711 C 5.508535861968994 14.35081958770752 5.591355800628662 14.32454967498779 5.678155899047852 14.32454967498779 Z M 9.001615524291992 12.78236961364746 C 6.915125846862793 12.78236961364746 5.217636108398438 11.08487987518311 5.217636108398438 8.998379707336426 C 5.217636108398438 6.911429882049561 6.915125846862793 5.213580131530762 9.001615524291992 5.213580131530762 C 11.08856582641602 5.213580131530762 12.78641605377197 6.911429882049561 12.78641605377197 8.998379707336426 C 12.78641605377197 11.08487987518311 11.08856582641602 12.78236961364746 9.001615524291992 12.78236961364746 Z M 9.001615524291992 6.029329776763916 C 7.364485740661621 6.029329776763916 6.032576084136963 7.361239910125732 6.032576084136963 8.998379707336426 C 6.032576084136963 10.63551998138428 7.364485740661621 11.96743011474609 9.001615524291992 11.96743011474609 C 10.63875579833984 11.96743011474609 11.97066593170166 10.63551998138428 11.97066593170166 8.998379707336426 C 11.97066593170166 7.361239910125732 10.63875579833984 6.029329776763916 9.001615524291992 6.029329776763916 Z" stroke="none"/>
        <path d="M 9.791376113891602 17.79999923706055 C 10.23903560638428 17.79999923706055 10.61802577972412 17.47938919067383 10.69255542755127 17.03753089904785 L 10.90640544891357 15.77472972869873 L 10.92692565917969 15.65355014801025 L 11.04429626464844 15.61711025238037 C 11.45840549468994 15.48855018615723 11.85954570770264 15.32242965698242 12.23656558990479 15.12337970733643 L 12.34576606750488 15.06573009490967 L 12.44622611999512 15.13751983642578 L 13.48846626281738 15.88232040405273 C 13.64192581176758 15.99279975891113 13.82503604888916 16.05118942260742 14.01799583435059 16.05118942260742 C 14.26074600219727 16.05118942260742 14.48955631256104 15.95606994628906 14.66228580474854 15.78334045410156 L 15.78334617614746 14.6622896194458 C 16.09992599487305 14.34570980072021 16.14132499694824 13.85173034667969 15.88171577453613 13.48760032653809 L 15.13731575012207 12.44188022613525 L 15.06612586975098 12.34187030792236 L 15.12306594848633 12.23311996459961 C 15.33151626586914 11.83500957489014 15.49761581420898 11.43432998657227 15.61675548553467 11.04220962524414 L 15.6528263092041 10.92348957061768 L 15.7752161026001 10.9030704498291 L 17.03766632080078 10.69254016876221 C 17.47938537597656 10.61802959442139 17.79999542236328 10.23904037475586 17.79999542236328 9.791379928588867 L 17.80001640319824 8.205940246582031 C 17.80598640441895 7.760049819946289 17.4887752532959 7.382190227508545 17.04565620422363 7.307449817657471 L 15.78203582763672 7.093609809875488 L 15.66060543060303 7.073060035705566 L 15.62429618835449 6.955379962921143 C 15.49658584594727 6.541500091552734 15.33055591583252 6.140570163726807 15.13082599639893 5.763720035552979 L 15.07286548614502 5.654379844665527 L 15.14485549926758 5.553719997406006 L 15.8889856338501 4.513239860534668 C 16.14987564086914 4.146639823913574 16.10881614685059 3.65258002281189 15.79057598114014 3.337660074234009 L 14.67065620422363 2.216939926147461 C 14.49708557128906 2.044029951095581 14.2678861618042 1.94880998134613 14.0252857208252 1.94880998134613 C 13.83497619628906 1.94880998134613 13.65326595306396 2.007200002670288 13.49894618988037 2.118289947509766 L 12.45322608947754 2.862689971923828 L 12.35274600982666 2.9342200756073 L 12.24372577667236 2.876549959182739 C 11.84302616119385 2.664599895477295 11.42765617370605 2.493819952011108 11.00915622711182 2.368949890136719 L 10.88983631134033 2.333349943161011 L 10.86912631988525 2.210580110549927 L 10.65846633911133 0.9620500206947327 C 10.58465576171875 0.5204899907112122 10.20568561553955 0.2000000029802322 9.757355690002441 0.2000000029802322 L 8.174606323242188 0.2000000029802322 C 7.72675609588623 0.2000000029802322 7.34812593460083 0.5204899907112122 7.274176120758057 0.9628099799156189 L 7.055465698242188 2.240999937057495 L 7.034805774688721 2.361769914627075 L 6.917825698852539 2.398220062255859 C 6.511526107788086 2.524810075759888 6.112485885620117 2.693120002746582 5.731795787811279 2.898459911346436 L 5.621625900268555 2.957890033721924 L 5.520025730133057 2.884769916534424 L 4.485625743865967 2.140360116958618 C 4.331416130065918 2.02935004234314 4.148295879364014 1.970679998397827 3.95607590675354 1.970679998397827 C 3.710665941238403 1.970679998397827 3.481965780258179 2.065700054168701 3.310786008834839 2.239550113677979 L 2.18669581413269 3.360389947891235 C 1.870115876197815 3.6769700050354 1.828705906867981 4.170949935913086 2.088375806808472 4.535160064697266 L 2.840065956115723 5.592219829559326 L 2.911165952682495 5.69221019744873 L 2.85425591468811 5.800899982452393 C 2.657675981521606 6.176350116729736 2.494345903396606 6.578219890594482 2.368825912475586 6.995349884033203 L 2.333035945892334 7.114270210266113 L 2.210575819015503 7.13493013381958 L 0.9620459079742432 7.345580101013184 C 0.5204858779907227 7.419390201568604 0.1999958902597427 7.798019886016846 0.1999958902597427 8.245880126953125 L 0.1999958902597427 9.829449653625488 C 0.1999958902597427 10.27729988098145 0.5204858779907227 10.65592956542969 0.9626858830451965 10.72984981536865 L 2.240885972976685 10.94773960113525 L 2.361755847930908 10.96835041046143 L 2.398225784301758 11.08541011810303 C 2.524595975875854 11.49106979370117 2.692935943603516 11.89043045043945 2.898545980453491 12.27239990234375 L 2.957805871963501 12.38249015808105 L 2.884795904159546 12.48398971557617 L 2.144225835800171 13.51348972320557 C 1.883805871009827 13.87942028045654 1.925265908241272 14.37355041503906 2.243395805358887 14.68902015686035 L 3.363635778427124 15.80926036834717 C 3.53687596321106 15.98250961303711 3.765975952148438 16.07792091369629 4.008726119995117 16.07792091369629 C 4.19904613494873 16.07792091369629 4.38075590133667 16.01952934265137 4.535075664520264 15.90843963623047 L 5.592135906219482 15.15594005584717 L 5.692225933074951 15.08469009399414 L 5.801025867462158 15.14175987243652 C 6.159895896911621 15.32999038696289 6.548495769500732 15.48995971679688 6.956016063690186 15.61721038818359 L 7.073445796966553 15.65388011932373 L 7.093686103820801 15.77521991729736 L 7.304275989532471 17.03795051574707 C 7.378086090087891 17.4795093536377 7.756715774536133 17.79999923706055 8.204575538635254 17.79999923706055 L 9.791376113891602 17.79999923706055 M 5.678155899047852 14.42455005645752 C 5.612855911254883 14.42455005645752 5.55133581161499 14.4437198638916 5.504925727844238 14.4785099029541 L 5.502915859222412 14.48001956939697 L 5.500865936279297 14.48147964477539 L 4.184606075286865 15.41784954071045 L 4.177825927734375 15.42267990112305 L 4.170655727386475 15.42691993713379 C 4.116856098175049 15.45882034301758 4.064945697784424 15.47432041168213 4.011965751647949 15.47432041168213 C 3.93190598487854 15.47432041168213 3.853626012802124 15.44097995758057 3.79926586151123 15.38496017456055 L 2.679025888442993 14.26471996307373 C 2.578055858612061 14.16374969482422 2.562495946884155 14.00829029083252 2.641196012496948 13.88667011260986 L 2.643656015396118 13.88286972045898 L 2.646286010742188 13.87917995452881 L 3.570625782012939 12.58331966400146 C 3.64141583442688 12.48283958435059 3.646845817565918 12.34943962097168 3.585415840148926 12.24507999420166 C 3.27716588973999 11.73244953155518 3.047015905380249 11.18558025360107 2.902115821838379 10.6225004196167 C 2.869895935058594 10.50454998016357 2.772795915603638 10.41530990600586 2.654775857925415 10.39515018463135 L 1.068755865097046 10.12444019317627 C 0.9216858744621277 10.10241985321045 0.8149359226226807 9.978349685668945 0.8149359226226807 9.829449653625488 L 0.8149359226226807 8.245880126953125 C 0.8149359226226807 8.097029685974121 0.9216458797454834 7.972970008850098 1.065245866775513 7.95143985748291 L 2.632345914840698 7.688240051269531 C 2.75428581237793 7.667590141296387 2.852115869522095 7.578110218048096 2.881675958633423 7.459879875183105 C 3.02824592590332 6.878590106964111 3.251865863800049 6.329800128936768 3.546105861663818 5.829090118408203 C 3.606985807418823 5.725019931793213 3.60097599029541 5.595109939575195 3.529855966567993 5.496809959411621 L 2.594425916671753 4.181859970092773 C 2.509535789489746 4.064539909362793 2.523265838623047 3.898319959640503 2.626375913619995 3.795219898223877 L 3.746615886688232 2.67497992515564 C 3.805375814437866 2.616219997406006 3.876935958862305 2.586430072784424 3.95931601524353 2.586430072784424 C 4.02129602432251 2.586430072784424 4.08111572265625 2.605760097503662 4.132165908813477 2.642240047454834 L 5.427645683288574 3.566319942474365 C 5.480765819549561 3.603559970855713 5.54330587387085 3.623239994049072 5.608495712280273 3.623239994049072 C 5.665085792541504 3.623239994049072 5.720235824584961 3.608409881591797 5.766416072845459 3.581269979476929 C 6.281486034393311 3.272239923477173 6.828325748443604 3.042109966278076 7.388865947723389 2.89805006980896 C 7.506795883178711 2.86584997177124 7.596035957336426 2.769020080566406 7.616185665130615 2.651550054550171 L 7.886975765228271 1.064210057258606 C 7.909255981445313 0.917900025844574 8.033286094665527 0.8116999864578247 8.181896209716797 0.8116999864578247 L 9.765456199645996 0.8116999864578247 C 9.914035797119141 0.8116999864578247 10.03806591033936 0.9178799986839294 10.05989551544189 1.061210036277771 L 10.32307624816895 2.62896990776062 C 10.34374618530273 2.750499963760376 10.4335355758667 2.848449945449829 10.55133628845215 2.878400087356567 C 11.13674545288086 3.025579929351807 11.69710636138916 3.255520105361938 12.21584606170654 3.561259984970093 C 12.26461601257324 3.589620113372803 12.31947612762451 3.604609966278076 12.37449550628662 3.604609966278076 C 12.43809604644775 3.604609966278076 12.49979591369629 3.584929943084717 12.55101585388184 3.549040079116821 L 13.84865570068359 2.616719961166382 L 13.85357570648193 2.613179922103882 L 13.85869598388672 2.609950065612793 C 13.91159629821777 2.576610088348389 13.96655559539795 2.559700012207031 14.02205562591553 2.559700012207031 C 14.09927558898926 2.559700012207031 14.17603588104248 2.591209888458252 14.23480606079102 2.648299932479858 L 15.35499572753906 3.769299983978271 C 15.45596599578857 3.870270013809204 15.47152614593506 4.025730133056641 15.39282608032227 4.147349834442139 L 15.39043617248535 4.151050090789795 L 15.38788604736328 4.154630184173584 L 14.4586763381958 5.460859775543213 C 14.38861560821533 5.557690143585205 14.38370609283447 5.688590049743652 14.44584560394287 5.793779850006104 C 14.74557590484619 6.297550201416016 14.97283554077148 6.845230102539063 15.12152576446533 7.422430038452148 C 15.15132617950439 7.540160179138184 15.24691581726074 7.628109931945801 15.36753559112549 7.646910190582275 L 16.94391632080078 7.912889957427979 C 17.0902156829834 7.935200214385986 17.1964054107666 8.0595703125 17.1964054107666 8.208620071411133 L 17.1964054107666 9.791379928588867 L 17.1964054107666 9.799320220947266 L 17.19577598571777 9.807239532470703 C 17.18438529968262 9.950400352478027 17.07938575744629 10.06544971466064 16.9426155090332 10.086669921875 L 15.36414623260498 10.34974002838135 C 15.2439661026001 10.37042999267578 15.14745616912842 10.45827007293701 15.11798572540283 10.5746603012085 C 14.96826553344727 11.15182018280029 14.74078559875488 11.69962024688721 14.44240570068359 12.20193958282471 C 14.38074588775635 12.30700016021729 14.3860559463501 12.43881988525391 14.45565605163574 12.53732967376709 L 15.38699626922607 13.84873962402344 C 15.46605587005615 13.96485042572021 15.45165634155273 14.12829971313477 15.35175609588623 14.23069953918457 L 14.23070621490479 15.35175037384033 C 14.172776222229 15.40968036651611 14.0992259979248 15.44029998779297 14.01799583435059 15.44029998779297 C 13.95986557006836 15.44029998779297 13.9040355682373 15.42310047149658 13.85203552246094 15.38918972015381 L 13.84859561920166 15.38694000244141 L 13.84524631500244 15.38455963134766 L 12.5409460067749 14.45534992218018 C 12.48973560333252 14.41876983642578 12.4288158416748 14.39943981170654 12.36477565765381 14.39943981170654 C 12.30869579315186 14.39943981170654 12.25327587127686 14.41442966461182 12.2063455581665 14.44171047210693 C 11.70423603057861 14.74096965789795 11.15656566619873 14.96852016448975 10.57680606842041 15.11847019195557 C 10.46005630493164 15.14754009246826 10.37272548675537 15.24273014068604 10.35389614105225 15.36357975006104 L 10.08709621429443 16.93988037109375 C 10.06479549407959 17.0861701965332 9.940425872802734 17.19235038757324 9.791376113891602 17.19235038757324 L 8.208625793457031 17.19235038757324 C 8.059545516967773 17.19235038757324 7.935175895690918 17.08614921569824 7.913335800170898 16.9426097869873 L 7.650255680084229 15.3641300201416 C 7.629575729370117 15.24396991729736 7.541736125946045 15.14747047424316 7.425466060638428 15.11802005767822 C 6.875785827636719 14.97579002380371 6.340285778045654 14.75644969940186 5.833685874938965 14.46601009368896 C 5.787816047668457 14.43966007232666 5.731125831604004 14.42455005645752 5.678155899047852 14.42455005645752 M 9.001615524291992 12.68237018585205 C 11.03342628479004 12.68237018585205 12.68641567230225 11.02974033355713 12.68641567230225 8.998379707336426 C 12.68641567230225 6.966569900512695 11.03342628479004 5.31358003616333 9.001615524291992 5.31358003616333 C 6.970265865325928 5.31358003616333 5.317636013031006 6.966569900512695 5.317636013031006 8.998379707336426 C 5.317636013031006 11.02974033355713 6.970265865325928 12.68237018585205 9.001615524291992 12.68237018585205 M 9.001615524291992 5.929329872131348 C 10.69389629364014 5.929329872131348 12.07066631317139 7.306099891662598 12.07066631317139 8.998379707336426 C 12.07066631317139 10.69066047668457 10.69389629364014 12.0674295425415 9.001615524291992 12.0674295425415 C 7.309345722198486 12.0674295425415 5.932575702667236 10.69066047668457 5.932575702667236 8.998379707336426 C 5.932575702667236 7.306099891662598 7.309345722198486 5.929329872131348 9.001615524291992 5.929329872131348 M 9.791376113891602 18 L 8.204575538635254 18 C 7.658596038818359 18 7.197005748748779 17.6092700958252 7.107016086578369 17.07092094421387 L 6.896405696868896 15.80811977386475 C 6.476785659790039 15.67708969116211 6.076786041259766 15.51224040985107 5.708126068115234 15.31886959075928 L 4.651065826416016 16.07136917114258 C 4.463356018066406 16.20649909973145 4.241225719451904 16.27791976928711 4.008726119995117 16.27791976928711 C 3.712555885314941 16.27791976928711 3.433235883712769 16.16171073913574 3.222215890884399 15.95067977905273 L 2.101975917816162 14.83043956756592 C 1.714555859565735 14.44626998901367 1.663795948028564 13.84364032745361 1.981275916099548 13.39752960205078 L 2.72243595123291 12.36719989776611 C 2.510495901107788 11.97346973419189 2.337185859680176 11.56190013885498 2.207275867462158 11.14490032196045 L 0.9290758967399597 10.92700958251953 C 0.3907358944416046 10.83701992034912 -4.103088485862827e-06 10.37541961669922 -4.103088485862827e-06 9.829449653625488 L -4.103088485862827e-06 8.245880126953125 C -4.103088485862827e-06 7.699910163879395 0.3907259106636047 7.238309860229492 0.9290758967399597 7.148320198059082 L 2.177305936813354 6.937719821929932 C 2.306665897369385 6.507850170135498 2.475065946578979 6.093939781188965 2.677075862884521 5.7081298828125 L 1.92538595199585 4.651070117950439 C 1.60891592502594 4.207190036773682 1.659335851669312 3.604909896850586 2.045275926589966 3.218970060348511 L 3.169565916061401 2.097919940948486 C 3.377335786819458 1.886899948120117 3.656665802001953 1.770679950714111 3.95607590675354 1.770679950714111 C 4.190485954284668 1.770679950714111 4.414005756378174 1.842380046844482 4.602466106414795 1.978039979934692 L 5.63684606552124 2.722440004348755 C 6.029386043548584 2.510699987411499 6.440675735473633 2.337399959564209 6.858335971832275 2.207269906997681 L 7.077045917510986 0.9290800094604492 C 7.167036056518555 0.3907400071620941 7.628625869750977 0 8.174606323242188 0 L 9.757355690002441 0 C 10.30379581451416 0 10.7657356262207 0.3907299935817719 10.85572624206543 0.9290800094604492 L 11.06633567810059 2.177299976348877 C 11.49787616729736 2.306060075759888 11.92568588256836 2.482069969177246 12.33723545074463 2.699759960174561 L 13.38295555114746 1.955360054969788 C 13.57066631317139 1.820230007171631 13.79279613494873 1.748810052871704 14.0252857208252 1.748810052871704 C 14.32116603851318 1.748810052871704 14.60048580169678 1.864740014076233 14.81180572509766 2.075239896774292 L 15.93204593658447 3.196290016174316 C 16.31952667236328 3.579710006713867 16.36994552612305 4.182340145111084 16.05193519592285 4.629199981689453 L 15.30753612518311 5.670060157775879 C 15.5134162902832 6.058509826660156 15.68426609039307 6.471429824829102 15.81540584564209 6.89640998840332 L 17.07902526855469 7.110249996185303 C 17.61996650695801 7.201489925384521 18.00729560852051 7.6634202003479 17.99999618530273 8.208620071411133 L 17.99999618530273 9.791379928588867 C 17.99999618530273 10.33701038360596 17.60926628112793 10.7989501953125 17.07092666625977 10.88974952697754 L 15.80811595916748 11.10035037994385 C 15.68516635894775 11.50500965118408 15.51404571533203 11.91755962371826 15.3002462387085 12.32588958740234 L 16.04464530944824 13.37160968780518 C 16.36111640930176 13.81548976898193 16.31069564819336 14.41777992248535 15.92476558685303 14.80370998382568 L 14.80370616912842 15.92475986480713 C 14.59319591522217 16.13526916503906 14.31416606903076 16.25119018554688 14.01799583435059 16.25119018554688 C 13.78284549713135 16.25119018554688 13.559326171875 16.17976951599121 13.37161636352539 16.04463958740234 L 12.32994556427002 15.30023956298828 C 11.94146633148193 15.50533962249756 11.52853584289551 15.67619037628174 11.10359573364258 15.80811977386475 L 10.88974571228027 17.07092094421387 C 10.79894542694092 17.60926055908203 10.33700561523438 18 9.791376113891602 18 Z M 5.678155899047852 14.22455024719238 C 5.766325950622559 14.22455024719238 5.856935977935791 14.24872016906738 5.933305740356445 14.29259014129639 C 6.424275875091553 14.57406997680664 6.94316577911377 14.78664016723633 7.475565910339355 14.92440032958984 C 7.667346000671387 14.97296047210693 7.813285827636719 15.13224983215332 7.847355842590332 15.33020973205566 L 8.110615730285645 16.90973091125488 C 8.117905616760254 16.95760917663574 8.159126281738281 16.99234962463379 8.208625793457031 16.99234962463379 L 9.791376113891602 16.99234962463379 C 9.840866088867188 16.99234962463379 9.882085800170898 16.95759963989258 9.889386177062988 16.90973091125488 L 10.15669631958008 15.33020973205566 C 10.18751621246338 15.13224983215332 10.33345603942871 14.97296047210693 10.52848625183105 14.92440032958984 C 11.08809566497803 14.77964973449707 11.61815547943115 14.55945014953613 12.10395622253418 14.26990985870361 C 12.1832160949707 14.22381019592285 12.27340602874756 14.19944000244141 12.36477565765381 14.19944000244141 C 12.47073554992676 14.19944000244141 12.57185554504395 14.23165035247803 12.65718555450439 14.29259014129639 L 13.96129608154297 15.22167015075684 C 13.98050594329834 15.23419952392578 13.99906635284424 15.24030017852783 14.01799583435059 15.24030017852783 C 14.04579544067383 15.24030017852783 14.06911563873291 15.23050022125244 14.0892858505249 15.21033000946045 L 15.21033573150635 14.089280128479 C 15.2428560256958 14.05593967437744 15.24783611297607 13.99971961975098 15.22167587280273 13.96129989624023 L 14.29259586334229 12.6531400680542 C 14.1774959564209 12.49020957946777 14.16858577728271 12.27336978912354 14.26991558074951 12.10070991516113 C 14.55920600891113 11.61369037628174 14.77940559387207 11.08335971832275 14.92439556121826 10.52443981170654 C 14.97295570373535 10.33265018463135 15.13224601745605 10.18671989440918 15.33021545410156 10.1526403427124 L 16.90973663330078 9.889389991760254 C 16.95675659179688 9.882089614868164 16.99239540100098 9.841790199279785 16.99640655517578 9.791379928588867 L 16.99640655517578 8.208620071411133 C 16.99640655517578 8.159130096435547 16.96165657043457 8.117910385131836 16.91377639770508 8.110610008239746 L 15.33426570892334 7.844120025634766 C 15.1367654800415 7.813370227813721 14.9771556854248 7.667099952697754 14.92764568328857 7.47150993347168 C 14.78390598297119 6.913529872894287 14.5639762878418 6.383470058441162 14.27396583557129 5.896049976348877 C 14.17101573944092 5.721759796142578 14.1799259185791 5.504930019378662 14.29664611816406 5.343619823455811 L 15.22491550445557 4.038700103759766 C 15.25188636779785 3.99702000617981 15.24723625183105 3.944380044937134 15.2135763168335 3.910720109939575 L 14.09333610534668 2.789669990539551 C 14.0646858215332 2.761859893798828 14.03152561187744 2.759700059890747 14.02205562591553 2.759700059890747 C 14.00442600250244 2.759700059890747 13.98640632629395 2.765870094299316 13.96535587310791 2.779139995574951 L 12.66771602630615 3.711460113525391 C 12.58077621459961 3.77239990234375 12.47938632965088 3.804610013961792 12.37449550628662 3.804610013961792 C 12.28418636322021 3.804610013961792 12.19455623626709 3.780240058898926 12.11529636383057 3.734139919281006 C 11.61205577850342 3.437550067901611 11.06946563720703 3.214890003204346 10.50256633758545 3.072360038757324 C 10.30766582489014 3.022819995880127 10.15982627868652 2.861949920654297 10.12590599060059 2.662499904632568 L 9.862655639648438 1.094320058822632 C 9.855356216430664 1.046440005302429 9.814476013183594 1.011700034141541 9.765456199645996 1.011700034141541 L 8.181896209716797 1.011700034141541 C 8.132865905761719 1.011700034141541 8.091985702514648 1.046450018882751 8.084695816040039 1.094320058822632 L 7.81333589553833 2.685179948806763 C 7.780076026916504 2.87910008430481 7.634135723114014 3.038399934768677 7.441545963287354 3.09099006652832 C 6.89676570892334 3.231019973754883 6.367805957794189 3.453680038452148 5.869316101074219 3.752769947052002 C 5.790865898132324 3.798880100250244 5.700675964355469 3.823240041732788 5.608495712280273 3.823240041732788 C 5.502016067504883 3.823240041732788 5.399785995483398 3.791029930114746 5.312845706939697 3.730089902877808 L 4.016026020050049 2.805059909820557 C 3.998475790023804 2.792520046234131 3.979925870895386 2.786429882049561 3.95931601524353 2.786429882049561 C 3.938885927200317 2.786429882049561 3.914445877075195 2.789989948272705 3.888036012649536 2.816400051116943 L 2.76779580116272 3.936640024185181 C 2.733985900878906 3.970449924468994 2.728995800018311 4.026669979095459 2.756455898284912 4.064620018005371 L 3.692825794219971 5.380879878997803 C 3.809445858001709 5.542049884796143 3.819615840911865 5.757619857788086 3.718745946884155 5.930069923400879 C 3.433915853500366 6.414760112762451 3.217535972595215 6.945909976959229 3.075605869293213 7.508780002593994 C 3.026875972747803 7.703670024871826 2.86599588394165 7.85152006149292 2.665735960006714 7.885429859161377 L 1.098375916481018 8.148679733276367 C 1.050025939941406 8.155940055847168 1.014935851097107 8.196809768676758 1.014935851097107 8.245880126953125 L 1.014935851097107 9.829449653625488 C 1.014935851097107 9.878520011901855 1.050035953521729 9.91940975189209 1.098375916481018 9.926650047302246 L 2.688416004180908 10.19799995422363 C 2.882815837860107 10.23120975494385 3.042425870895386 10.37714958190918 3.095045804977417 10.56980037689209 C 3.235885858535767 11.1169900894165 3.45853590965271 11.64595985412598 3.756815910339355 12.1420202255249 C 3.858955860137939 12.31552028656006 3.850055932998657 12.53394031524658 3.734135866165161 12.69849967956543 L 2.80910587310791 13.99532032012939 C 2.782135963439941 14.03699970245361 2.786785840988159 14.08963966369629 2.820446014404297 14.12329959869385 L 3.940685987472534 15.24353981018066 C 3.968415975570679 15.2721004486084 4.002255916595459 15.27431964874268 4.011965751647949 15.27431964874268 C 4.028505802154541 15.27431964874268 4.045985698699951 15.26832962036133 4.068675994873047 15.25487995147705 L 5.384935855865479 14.31851005554199 C 5.465715885162354 14.25792980194092 5.569855690002441 14.22455024719238 5.678155899047852 14.22455024719238 Z M 9.001615524291992 12.88236999511719 C 6.859985828399658 12.88236999511719 5.117635726928711 11.14000988006592 5.117635726928711 8.998379707336426 C 5.117635726928711 6.856299877166748 6.859985828399658 5.113580226898193 9.001615524291992 5.113580226898193 C 11.14370632171631 5.113580226898193 12.88641548156738 6.856299877166748 12.88641548156738 8.998379707336426 C 12.88641548156738 11.14000988006592 11.14370632171631 12.88236999511719 9.001615524291992 12.88236999511719 Z M 9.001615524291992 6.129330158233643 C 7.419615745544434 6.129330158233643 6.132575988769531 7.416379928588867 6.132575988769531 8.998379707336426 C 6.132575988769531 10.5803804397583 7.419615745544434 11.86742973327637 9.001615524291992 11.86742973327637 C 10.58361625671387 11.86742973327637 11.87066555023193 10.5803804397583 11.87066555023193 8.998379707336426 C 11.87066555023193 7.416379928588867 10.58361625671387 6.129330158233643 9.001615524291992 6.129330158233643 Z" stroke="none" fill="#bfc5d2"/>
      </g>
    </g>
  </g>
</svg>
