<svg xmlns="http://www.w3.org/2000/svg" xmlns:xlink="http://www.w3.org/1999/xlink" width="18" height="18" viewBox="0 0 18 18">
  <defs>
    <linearGradient id="linear-gradient" x1="0.13" y1="0.125" x2="0.895" y2="0.925" gradientUnits="objectBoundingBox">
      <stop offset="0" stop-color="#d61518"/>
      <stop offset="1" stop-color="#ea9b39"/>
    </linearGradient>
    <clipPath id="clip-path">
      <path id="Settings" d="M9.791,18H8.2a1.109,1.109,0,0,1-1.1-.929L6.9,15.808a7.158,7.158,0,0,1-1.188-.489l-1.057.752a1.093,1.093,0,0,1-.642.207,1.106,1.106,0,0,1-.787-.327L2.1,14.83A1.107,1.107,0,0,1,1.981,13.4l.741-1.03a6.946,6.946,0,0,1-.515-1.222L.929,10.927A1.109,1.109,0,0,1,0,9.829V8.246a1.109,1.109,0,0,1,.929-1.1l1.248-.211a7.015,7.015,0,0,1,.5-1.23L1.925,4.651a1.109,1.109,0,0,1,.12-1.432L3.17,2.1A1.11,1.11,0,0,1,4.6,1.978l1.034.744a6.911,6.911,0,0,1,1.221-.515L7.077.929A1.109,1.109,0,0,1,8.175,0H9.757a1.11,1.11,0,0,1,1.1.929l.211,1.248a7.021,7.021,0,0,1,1.271.522l1.046-.744a1.093,1.093,0,0,1,.642-.207,1.108,1.108,0,0,1,.787.326L15.932,3.2a1.106,1.106,0,0,1,.12,1.433L15.308,5.67A7.088,7.088,0,0,1,15.815,6.9l1.264.214A1.1,1.1,0,0,1,18,8.209V9.791a1.111,1.111,0,0,1-.929,1.1l-1.263.211a7.121,7.121,0,0,1-.508,1.226l.744,1.046a1.109,1.109,0,0,1-.12,1.432L14.8,15.925a1.111,1.111,0,0,1-1.432.12L12.33,15.3a7.217,7.217,0,0,1-1.226.508l-.214,1.263A1.111,1.111,0,0,1,9.791,18ZM5.678,14.225a.52.52,0,0,1,.255.068,6.254,6.254,0,0,0,1.542.632.506.506,0,0,1,.372.406l.263,1.58a.1.1,0,0,0,.1.083H9.791a.1.1,0,0,0,.1-.083l.267-1.58a.5.5,0,0,1,.372-.406A6.018,6.018,0,0,0,12.1,14.27a.519.519,0,0,1,.261-.07.5.5,0,0,1,.292.093l1.3.929a.1.1,0,0,0,.057.019.1.1,0,0,0,.071-.03l1.121-1.121a.1.1,0,0,0,.011-.128l-.929-1.308a.511.511,0,0,1-.023-.552,6.067,6.067,0,0,0,.654-1.576.506.506,0,0,1,.406-.372l1.58-.263a.105.105,0,0,0,.087-.1V8.209a.1.1,0,0,0-.083-.1l-1.58-.266a.5.5,0,0,1-.407-.373A6.011,6.011,0,0,0,14.274,5.9a.5.5,0,0,1,.023-.552l.928-1.3a.1.1,0,0,0-.011-.128L14.093,2.79a.1.1,0,0,0-.128-.011l-1.3.932a.509.509,0,0,1-.293.093.516.516,0,0,1-.259-.07A6.108,6.108,0,0,0,10.5,3.072a.511.511,0,0,1-.377-.41L9.863,1.094a.1.1,0,0,0-.1-.083H8.182a.1.1,0,0,0-.1.083L7.813,2.685a.514.514,0,0,1-.372.406,5.925,5.925,0,0,0-1.572.662.517.517,0,0,1-.556-.023l-1.3-.925a.1.1,0,0,0-.057-.019.093.093,0,0,0-.071.03l-1.12,1.12a.1.1,0,0,0-.011.128l.936,1.316a.5.5,0,0,1,.026.549,6.015,6.015,0,0,0-.643,1.579.509.509,0,0,1-.41.377L1.1,8.149a.1.1,0,0,0-.083.1V9.829a.1.1,0,0,0,.083.1l1.59.271a.514.514,0,0,1,.407.372,5.911,5.911,0,0,0,.662,1.572.515.515,0,0,1-.023.556L2.809,14a.1.1,0,0,0,.011.128l1.12,1.12a.1.1,0,0,0,.071.031.112.112,0,0,0,.057-.019l1.316-.936A.49.49,0,0,1,5.678,14.225ZM9,12.882A3.884,3.884,0,1,1,12.886,9,3.888,3.888,0,0,1,9,12.882ZM9,6.129A2.869,2.869,0,1,0,11.871,9,2.872,2.872,0,0,0,9,6.129Z" fill="url(#linear-gradient)"/>
    </clipPath>
  </defs>
  <g id="nav_xtgl_hover" transform="translate(-2 -2)" style="isolation: isolate">
    <g id="组_4" data-name="组 4" transform="translate(2 2)">
      <path id="Settings-2" data-name="Settings" d="M9.791,18H8.2a1.109,1.109,0,0,1-1.1-.929L6.9,15.808a7.158,7.158,0,0,1-1.188-.489l-1.057.752a1.093,1.093,0,0,1-.642.207,1.106,1.106,0,0,1-.787-.327L2.1,14.83A1.107,1.107,0,0,1,1.981,13.4l.741-1.03a6.946,6.946,0,0,1-.515-1.222L.929,10.927A1.109,1.109,0,0,1,0,9.829V8.246a1.109,1.109,0,0,1,.929-1.1l1.248-.211a7.015,7.015,0,0,1,.5-1.23L1.925,4.651a1.109,1.109,0,0,1,.12-1.432L3.17,2.1A1.11,1.11,0,0,1,4.6,1.978l1.034.744a6.911,6.911,0,0,1,1.221-.515L7.077.929A1.109,1.109,0,0,1,8.175,0H9.757a1.11,1.11,0,0,1,1.1.929l.211,1.248a7.021,7.021,0,0,1,1.271.522l1.046-.744a1.093,1.093,0,0,1,.642-.207,1.108,1.108,0,0,1,.787.326L15.932,3.2a1.106,1.106,0,0,1,.12,1.433L15.308,5.67A7.088,7.088,0,0,1,15.815,6.9l1.264.214A1.1,1.1,0,0,1,18,8.209V9.791a1.111,1.111,0,0,1-.929,1.1l-1.263.211a7.121,7.121,0,0,1-.508,1.226l.744,1.046a1.109,1.109,0,0,1-.12,1.432L14.8,15.925a1.111,1.111,0,0,1-1.432.12L12.33,15.3a7.217,7.217,0,0,1-1.226.508l-.214,1.263A1.111,1.111,0,0,1,9.791,18ZM5.678,14.225a.52.52,0,0,1,.255.068,6.254,6.254,0,0,0,1.542.632.506.506,0,0,1,.372.406l.263,1.58a.1.1,0,0,0,.1.083H9.791a.1.1,0,0,0,.1-.083l.267-1.58a.5.5,0,0,1,.372-.406A6.018,6.018,0,0,0,12.1,14.27a.519.519,0,0,1,.261-.07.5.5,0,0,1,.292.093l1.3.929a.1.1,0,0,0,.057.019.1.1,0,0,0,.071-.03l1.121-1.121a.1.1,0,0,0,.011-.128l-.929-1.308a.511.511,0,0,1-.023-.552,6.067,6.067,0,0,0,.654-1.576.506.506,0,0,1,.406-.372l1.58-.263a.105.105,0,0,0,.087-.1V8.209a.1.1,0,0,0-.083-.1l-1.58-.266a.5.5,0,0,1-.407-.373A6.011,6.011,0,0,0,14.274,5.9a.5.5,0,0,1,.023-.552l.928-1.3a.1.1,0,0,0-.011-.128L14.093,2.79a.1.1,0,0,0-.128-.011l-1.3.932a.509.509,0,0,1-.293.093.516.516,0,0,1-.259-.07A6.108,6.108,0,0,0,10.5,3.072a.511.511,0,0,1-.377-.41L9.863,1.094a.1.1,0,0,0-.1-.083H8.182a.1.1,0,0,0-.1.083L7.813,2.685a.514.514,0,0,1-.372.406,5.925,5.925,0,0,0-1.572.662.517.517,0,0,1-.556-.023l-1.3-.925a.1.1,0,0,0-.057-.019.093.093,0,0,0-.071.03l-1.12,1.12a.1.1,0,0,0-.011.128l.936,1.316a.5.5,0,0,1,.026.549,6.015,6.015,0,0,0-.643,1.579.509.509,0,0,1-.41.377L1.1,8.149a.1.1,0,0,0-.083.1V9.829a.1.1,0,0,0,.083.1l1.59.271a.514.514,0,0,1,.407.372,5.911,5.911,0,0,0,.662,1.572.515.515,0,0,1-.023.556L2.809,14a.1.1,0,0,0,.011.128l1.12,1.12a.1.1,0,0,0,.071.031.112.112,0,0,0,.057-.019l1.316-.936A.49.49,0,0,1,5.678,14.225ZM9,12.882A3.884,3.884,0,1,1,12.886,9,3.888,3.888,0,0,1,9,12.882ZM9,6.129A2.869,2.869,0,1,0,11.871,9,2.872,2.872,0,0,0,9,6.129Z" fill="url(#linear-gradient)"/>
    </g>
  </g>
</svg>
