<svg xmlns="http://www.w3.org/2000/svg" width="14" height="14" viewBox="0 0 18 18">
  <path id="nav_xqgl" d="M162.051,191.247l3.1,1.552,5.737,2.9,5.533-2.794,3.309-1.652a1.747,1.747,0,0,1-.77,2.276l-7.355,3.712a1.585,1.585,0,0,1-1.434,0l-7.355-3.712A1.747,1.747,0,0,1,162.051,191.247Zm17.675-3.587a1.747,1.747,0,0,1-.763,2.291l-7.356,3.712a1.585,1.585,0,0,1-1.434,0l-7.355-3.712a1.745,1.745,0,0,1-.8-2.2l8.146,4,.727.367,7.355-3.712,0,0,1.483-.747Zm-8.118-8.08,7.354,3.712a1.746,1.746,0,0,1,0,3.085l-7.354,3.712a1.585,1.585,0,0,1-1.434,0l-7.355-3.712a1.746,1.746,0,0,1,0-3.085l7.355-3.711a1.585,1.585,0,0,1,1.434,0Zm-.717,1.543-7.355,3.712,7.355,3.712,7.355-3.712Z" transform="translate(-161.891 -179.41)" fill="#bfc5d2"/>
</svg>
