<svg xmlns="http://www.w3.org/2000/svg" xmlns:xlink="http://www.w3.org/1999/xlink" width="18" height="18" viewBox="0 0 18 18">
  <defs>
    <clipPath id="clip-path">
      <path id="Shape" d="M17.365,18a.777.777,0,0,1-.185-.031l-5.391-1.628L6.4,17.969A.776.776,0,0,1,6.212,18a.769.769,0,0,1-.184-.03L.45,16.279a.631.631,0,0,1-.45-.6V.633A.672.672,0,0,1,.263.121.68.68,0,0,1,.645,0,.562.562,0,0,1,.821.028L6.212,1.672,11.587.028h.031A.141.141,0,0,1,11.7.012h.155a.113.113,0,0,1,.038.008.117.117,0,0,0,.04.008h.031l5.576,1.69A.645.645,0,0,1,18,2.323V17.364a.672.672,0,0,1-.263.512A.629.629,0,0,1,17.365,18ZM12.424,1.486V15.224l4.306,1.3V2.788Zm-1.271,0L6.847,2.8V16.527l4.306-1.319Zm-9.883,0V15.224l4.307,1.3V2.788Z" fill="#2e5bff"/>
    </clipPath>
  </defs>
  <g id="nav_xmgl_hover" transform="translate(-2 -2)">
    <g id="组_6" data-name="组 6" transform="translate(2 2)">
      <path id="Shape-2" data-name="Shape" d="M17.365,18a.777.777,0,0,1-.185-.031l-5.391-1.628L6.4,17.969A.776.776,0,0,1,6.212,18a.769.769,0,0,1-.184-.03L.45,16.279a.631.631,0,0,1-.45-.6V.633A.672.672,0,0,1,.263.121.68.68,0,0,1,.645,0,.562.562,0,0,1,.821.028L6.212,1.672,11.587.028h.031A.141.141,0,0,1,11.7.012h.155a.113.113,0,0,1,.038.008.117.117,0,0,0,.04.008h.031l5.576,1.69A.645.645,0,0,1,18,2.323V17.364a.672.672,0,0,1-.263.512A.629.629,0,0,1,17.365,18ZM12.424,1.486V15.224l4.306,1.3V2.788Zm-1.271,0L6.847,2.8V16.527l4.306-1.319Zm-9.883,0V15.224l4.307,1.3V2.788Z" fill="#2e5bff"/>
    </g>
  </g>
</svg>
