<svg xmlns="http://www.w3.org/2000/svg" width="8" height="8" viewBox="0 0 8 8">
  <path id="Pull_up" data-name="Pull up" d="M121.805,118.657a.471.471,0,0,0,.7,0l3.508-3.724a.547.547,0,0,0,0-.74.471.471,0,0,0-.7,0l-3.16,3.355-3.16-3.355a.471.471,0,0,0-.7,0,.548.548,0,0,0,0,.74l3.508,3.724Zm3.508-1.235-3.16,3.355-3.16-3.355a.471.471,0,0,0-.7,0,.548.548,0,0,0,0,.74l3.508,3.724a.471.471,0,0,0,.7,0l3.508-3.724a.548.548,0,0,0,0-.74.471.471,0,0,0-.7,0Z" transform="translate(126.153 122.04) rotate(180)" fill="#ff9716"/>
</svg>
