<svg xmlns="http://www.w3.org/2000/svg" xmlns:xlink="http://www.w3.org/1999/xlink" width="14" height="14" viewBox="0 0 14 14">
  <defs>
    <style>
      .cls-1 {
        fill: url(#linear-gradient);
      }
    </style>
    <linearGradient id="linear-gradient" x1="0.275" y1="1" x2="1" y2="0.2" gradientUnits="objectBoundingBox">
      <stop offset="0" stop-color="#2e5bff"/>
      <stop offset="1" stop-color="#2496ee"/>
    </linearGradient>
  </defs>
  <path id="sc" class="cls-1" d="M67.456,90.064,64.312,91.8a.964.964,0,0,1-1.337-.439,1,1,0,0,1-.1-.646l.594-3.643a.267.267,0,0,0-.074-.233L60.9,84.25a1.086,1.086,0,0,1-.025-1.473,1.133,1.133,0,0,1,.569-.31l3.515-.543c.074,0,.149-.078.2-.129l1.56-3.307a.973.973,0,0,1,1.337-.465.994.994,0,0,1,.446.465l1.535,3.333a.2.2,0,0,0,.2.129l3.515.543a1.018,1.018,0,0,1,.842,1.163.91.91,0,0,1-.3.594l-2.525,2.584a.371.371,0,0,0-.074.233l.594,3.643a1.022,1.022,0,0,1-.817,1.189.992.992,0,0,1-.619-.1L67.7,90.064A.4.4,0,0,0,67.456,90.064Z" transform="translate(-60.595 -77.912)"/>
</svg>
